<?xml version="1.0" encoding="utf-8"?>
<!-- Generator: Adobe Illustrator 17.0.0, SVG Export Plug-In . SVG Version: 6.00 Build 0)  -->
<!DOCTYPE svg PUBLIC "-//W3C//DTD SVG 1.1//EN" "http://www.w3.org/Graphics/SVG/1.1/DTD/svg11.dtd">
<svg version="1.1" id="Capa_1" xmlns="http://www.w3.org/2000/svg" xmlns:xlink="http://www.w3.org/1999/xlink" x="0px" y="0px"
	 width="200px" height="200px" viewBox="0 0 200 200" enable-background="new 0 0 200 200" xml:space="preserve">
<path fill="#1D1D1B" d="M193.208,75.333c-4.793-2.396-10.22-3.628-15.423-3.096c1.631-4.199,2.111-9.336-1.101-12.223
	c-4.634-4.166-10.576-2.31-15.665,0.172c-1.872-3.545-3.902-7.264-4.593-11.098c-0.429-2.381-3.671-2.375-4.794-0.627
	c-1.971,3.068-4.649,5.351-7.329,7.694c-3.235-4.242-8.142-9.281-13.478-6.931c-0.565,0.249-1.064,0.547-1.533,0.867
	c-6.385-9.105-15.091-8.678-22.95-0.431C97.541,36.89,84.71,34.653,75.454,48.245c-11.187-7.921-23.561-6.018-21.038,9.471
	c-6.565,0.306-11.821,6.743-15.005,12.018c-3.617-3.888-9.095-8.17-14.089-6.516c-5.445,1.803-6.987,7.147-7.058,12.357
	c-3.876-0.402-8.019-0.389-11.484-1.843c-1.276-0.535-2.607,0.784-2.618,1.994c-0.04,4.356,0.099,8.899,2.931,12.419
	c1.523,1.893,4.244,2.434,6.848,2.744c-0.696,0.706-1.31,1.497-1.781,2.407c-2.321,4.487-0.62,9.628,1.957,13.585
	c1.695,2.601,5.869,0.199,4.18-2.443c-2.848-4.454-3.572-11.329,3.282-12.126c2.558-0.297,4.888,0.628,6.603,2.519
	c2.567,2.83,2.05,7.253,1.639,10.723c-5.058,0.227-9.866,1.132-14.166,3.154c-0.197,0.092-0.263,0.248-0.353,0.392
	c-0.5-0.793-1.02-1.556-1.507-2.368c-1.123-1.872-3.686-0.567-3.345,1.41c6.655,38.53,53.031,53.852,86.842,53.907
	c38.241,0.063,79.034-19.632,92.26-57.357c1.278-3.645-2.716-5.569-5.463-4.241c-0.825-0.592-1.941-0.909-3.339-0.715
	c-1.755,0.244-3.502,0.518-5.251,0.783c4.302-8.372,9.429-15.156,17.707-20.408C194.855,79.066,195.151,76.304,193.208,75.333z
	 M74.353,53.5c1.163,1.068,2.981,0.888,3.819-0.492c7.045-11.597,19.406-8.797,25.691,2.02c1.025,1.763,3.195,1.422,4.284,0
	c8.693-5.69,14.708-6.098,18.119-1.372c-2.027,4.28-1.177,10.189-0.047,14.567c0.172,0.667,0.571,1.027,1.031,1.187
	c-1.113,0.977-2.196,2.081-3.192,3.447c-1.461-2.501-2.915-5.052-3.656-7.777c-0.452-1.659-2.999-2.652-4.202-1.11
	c-3.518,4.511-7.796,7.632-10.761,12.315c-3.745-3.317-9.042-7.324-13.684-5.256c-6.121,2.728-4.437,9.828-2.853,14.987
	c0.455,1.483,2.518,0.848,2.277-0.628c-2.21-5.297-0.141-8.519,6.209-9.666c2.645,1.489,5.007,3.33,7.086,5.524
	c0.957,0.894,2.763,0.86,3.4-0.438c2.054-4.189,5.864-7.124,9.194-10.382c1.384,2.943,3.213,5.717,4.753,8.546
	c0.863,1.586,3.439,1.647,4.286,0c2.457-4.781,5.617-9.139,11.477-9.441c7.798-0.403,7.059,9.789,6.103,14.715
	c-16.307-6.443-42.19,3.895-35.489,26.673c-0.725,0.065-1.454,0.097-2.18,0.155c-4.782-9.401-11.176-21.812-19.87-23.812
	c1.447-5.217,0.669-11.301-2.156-15.68c-3.719-5.766-10.789-5.166-16.468-3.058C65.601,63.434,62.798,59,57.336,57.91
	C57.498,48.397,67.85,47.526,74.353,53.5z M55.927,108.279c-7.052-1.281-14.369-2.526-21.371-2.743
	c0.566-3.812,0.048-7.922-1.575-11.258c0.027-0.033,0.035-0.083,0.061-0.117c6.329-2.991,12.784-4.555,19.758-2.849
	c4.078,0.998,7.017,3.415,9.627,6.275c-3.273,2.005-5.749,5.142-6.592,9.439C55.744,107.497,55.807,107.905,55.927,108.279z
	 M33.625,91.988c2.197-8.401,11.699-8.623,19.072-6.866c6.745,1.607,12,5.203,16.403,10.058c-0.857,0.138-1.695,0.339-2.516,0.583
	C58.756,85.838,44.667,86.246,33.625,91.988z M60.39,108.282c0.92-3.244,2.71-5.418,5.392-6.71c0.358,0.443,0.716,0.886,1.077,1.327
	c1.358,1.653,3.471-0.452,2.735-2.11c-0.047-0.106-0.107-0.194-0.155-0.298c2.761-0.418,5.453,0.125,8.145,0.675
	c2.428,3.426,4.633,7.016,6.939,10.534c-3.694-0.1-7.4-0.278-11.132-0.638c-4.149-0.401-8.674-1.186-13.373-2.04
	C60.165,108.807,60.305,108.581,60.39,108.282z M81.904,101.84c0.052,0.004,0.103,0.013,0.155,0.017
	c2.253,0.144,2.867-2.994,1.103-4.07c-1.594-0.972-3.345-1.677-5.156-2.164c-0.418-0.573-0.783-1.174-1.237-1.727
	c1.209-0.98,2.364-1.631,3.496-2.132c-0.101,1.912,2.414,2.083,3.349,0.836c0.385-0.512,0.692-1.081,1.008-1.643
	c3.328,0.301,6.362,2.694,9.23,6.848c2.944,4.264,5.103,8.995,7.458,13.607c-4.815,0.289-9.655,0.394-14.52,0.325
	C85.151,108.42,83.627,105.071,81.904,101.84z M21.196,87.533c-0.856,0.082-1.694,0.274-2.51,0.526
	c-0.011-0.003-0.017-0.011-0.028-0.014c-2.173-0.631-4.394-1.084-6.551-1.768c-3.276-1.039-3.663-4.737-3.748-7.983
	c3.762,0.515,7.552-0.044,11.338,1.249c1.274,0.435,2.255-0.685,2.39-1.82c0.466-3.94,0.897-11.223,6.632-10.125
	c4.073,0.78,7.263,4.781,9.995,7.574c1.843,1.884,4.298-0.735,2.958-2.73c6.572-9.886,18.813-16.103,22.096-0.065
	c0.242,1.184,1.803,2.155,2.969,1.685c5.964-2.405,12.462-3.758,14.78,3.944c0.931,3.092,0.202,6.221-0.488,9.323
	c-2.492,0.614-5.146,2.089-7.979,4.689c-10.865-12.37-40.489-20.045-41.954-0.63C28.843,88.734,25.557,87.115,21.196,87.533z
	 M179.693,108.045c-15.037,30.983-48.81,45.176-82.398,46.057c-35.48,0.931-62.436-14.938-80.989-43.428
	c0.068-0.002,0.122,0.046,0.193,0.03c8-1.853,20.189,2.117,27.991,3.342c10.804,1.696,21.592,3.469,32.456,4.741
	C111.786,122.863,145.516,112.857,179.693,108.045z M127.277,94.682c7.213-0.813,12.568,5.316,14.649,11.524
	c-7.616,1.312-15.228,2.539-22.867,3.51c0.011-0.116,0.023-0.232,0-0.364C117.925,102.929,119.789,95.526,127.277,94.682z
	 M169.21,100.938c-0.072,0.201-0.057,0.384-0.077,0.575c-7.757,1.264-15.473,2.652-23.176,4.001
	c-0.017-0.136,0.002-0.259-0.046-0.405c-2.735-8.488-10.316-16.331-20.008-14.433c-9.542,1.869-12.1,10.945-9.008,19.271
	c0.003,0.007,0.008,0.011,0.01,0.018c-1.854,0.223-3.706,0.458-5.564,0.646c-2.828-12.055,4.159-20.846,15.996-23.372
	c12.055-2.573,20.825,4.051,24.481,15c0.745,2.233,4.317,1.953,4.232-0.573c-0.232-6.921-3.344-11.869-7.877-15.035
	c0.038-0.098,0.103-0.161,0.131-0.27c4.388-16.75-8.175-25.142-18.627-18.756c0.002-0.115,0.031-0.219,0.013-0.341
	c-0.467-3.128-0.796-6.24-0.124-9.245c1.553,0.171,3.241-1.511,2.346-3.396c-0.131-0.277-0.274-0.511-0.408-0.776
	c3.46-3.198,9.659,6.194,10.304,7.148c0.925,1.37,2.596,1.564,3.838,0.495c2.46-2.117,4.898-4.064,7.096-6.291
	c1.345,3.429,3.284,6.759,4.845,9.895c0.666,1.338,2.423,1.593,3.637,0.954c2.323-1.223,10.254-5.98,12.056-1.147
	c0.908,2.435-0.266,5.729-0.905,8.625c-1.831,0.713-3.604,1.654-5.241,2.978c-7.619,6.161-11.205,15.964-8.248,25.438
	c0.336,1.078,2.1,0.929,2.029-0.275c-0.894-15.119,10.758-27.43,25.091-23.278C178.374,84.175,172.507,91.726,169.21,100.938z"/>
</svg>
